<svg width="10" height="11" viewBox="0 0 10 11" fill="none" xmlns="http://www.w3.org/2000/svg">
<path d="M9.16666 7.54996V8.79996C9.16713 8.916 9.14336 9.03086 9.09687 9.13719C9.05038 9.24351 8.9822 9.33895 8.89669 9.4174C8.81118 9.49585 8.71023 9.55558 8.6003 9.59275C8.49038 9.62993 8.3739 9.64374 8.25833 9.63329C6.97617 9.49398 5.74458 9.05585 4.66249 8.35413C3.65575 7.7144 2.80222 6.86086 2.16249 5.85413C1.45832 4.76713 1.02009 3.52954 0.883326 2.24163C0.872914 2.1264 0.886607 2.01028 0.923534 1.90064C0.960462 1.791 1.01981 1.69025 1.09781 1.6048C1.17581 1.51936 1.27074 1.45109 1.37657 1.40434C1.4824 1.3576 1.5968 1.3334 1.71249 1.33329H2.96249C3.1647 1.3313 3.36074 1.40291 3.51406 1.53476C3.66738 1.66662 3.76752 1.84973 3.79583 2.04996C3.84859 2.44999 3.94643 2.84276 4.08749 3.22079C4.14355 3.36993 4.15569 3.53201 4.12245 3.68783C4.08922 3.84364 4.01202 3.98667 3.89999 4.09996L3.37083 4.62913C3.96397 5.67227 4.82768 6.53598 5.87083 7.12913L6.39999 6.59996C6.51328 6.48793 6.65631 6.41073 6.81213 6.3775C6.96794 6.34427 7.13002 6.3564 7.27916 6.41246C7.65719 6.55352 8.04996 6.65137 8.44999 6.70413C8.65239 6.73268 8.83724 6.83463 8.96938 6.99058C9.10152 7.14654 9.17173 7.34562 9.16666 7.54996Z" stroke="#B8BBC3" stroke-linecap="round" stroke-linejoin="round"/>
</svg>
