<svg width="14" height="15" viewBox="0 0 14 15" fill="none" xmlns="http://www.w3.org/2000/svg">
<g clip-path="url(#clip0_349_743)">
<path d="M12.8333 10.37V12.12C12.834 12.2825 12.8007 12.4433 12.7356 12.5921C12.6705 12.741 12.5751 12.8746 12.4554 12.9844C12.3357 13.0943 12.1943 13.1779 12.0404 13.2299C11.8865 13.282 11.7235 13.3013 11.5617 13.2867C9.76665 13.0916 8.04242 12.4783 6.5275 11.4958C5.11807 10.6002 3.92311 9.40528 3.0275 7.99585C2.04166 6.47405 1.42814 4.74143 1.23667 2.93835C1.22209 2.77704 1.24126 2.61446 1.29296 2.46096C1.34466 2.30747 1.42775 2.16642 1.53695 2.04679C1.64615 1.92717 1.77905 1.8316 1.92721 1.76615C2.07537 1.70071 2.23553 1.66684 2.3975 1.66668H4.1475C4.4306 1.6639 4.70505 1.76415 4.9197 1.94874C5.13434 2.13334 5.27455 2.38969 5.31417 2.67002C5.38803 3.23005 5.52501 3.77994 5.7225 4.30918C5.80099 4.51797 5.81797 4.74488 5.77145 4.96303C5.72492 5.18118 5.61684 5.38141 5.46 5.54002L4.71917 6.28085C5.54958 7.74125 6.75877 8.95044 8.21917 9.78085L8.96 9.04002C9.1186 8.88318 9.31884 8.77509 9.53699 8.72857C9.75513 8.68205 9.98205 8.69903 10.1908 8.77752C10.7201 8.975 11.27 9.11199 11.83 9.18585C12.1134 9.22582 12.3722 9.36855 12.5571 9.58689C12.7421 9.80522 12.8404 10.0839 12.8333 10.37Z" stroke="#1D1E21" stroke-width="1.5" stroke-linecap="round" stroke-linejoin="round"/>
</g>
<defs>
<clipPath id="clip0_349_743">
<rect width="14" height="14" fill="white" transform="translate(0 0.5)"/>
</clipPath>
</defs>
</svg>
