<svg width="10" height="10" viewBox="0 0 10 10" fill="none" xmlns="http://www.w3.org/2000/svg">
<path d="M9.16666 7.05002V8.30002C9.16713 8.41606 9.14336 8.53092 9.09687 8.63725C9.05038 8.74357 8.9822 8.83902 8.89669 8.91746C8.81118 8.99591 8.71023 9.05564 8.6003 9.09281C8.49038 9.12999 8.3739 9.1438 8.25833 9.13335C6.97617 8.99404 5.74458 8.55591 4.66249 7.85419C3.65575 7.21446 2.80222 6.36093 2.16249 5.35419C1.45832 4.26719 1.02009 3.0296 0.883326 1.74169C0.872914 1.62646 0.886607 1.51034 0.923534 1.4007C0.960462 1.29106 1.01981 1.19031 1.09781 1.10486C1.17581 1.01942 1.27074 0.951149 1.37657 0.904404C1.4824 0.857659 1.5968 0.833462 1.71249 0.833353H2.96249C3.1647 0.831363 3.36074 0.902969 3.51406 1.03483C3.66738 1.16668 3.76752 1.34979 3.79583 1.55002C3.84859 1.95005 3.94643 2.34282 4.08749 2.72085C4.14355 2.86999 4.15569 3.03207 4.12245 3.18789C4.08922 3.34371 4.01202 3.48673 3.89999 3.60002L3.37083 4.12919C3.96397 5.17233 4.82768 6.03604 5.87083 6.62919L6.39999 6.10002C6.51328 5.98799 6.65631 5.91079 6.81213 5.87756C6.96794 5.84433 7.13002 5.85646 7.27916 5.91252C7.65719 6.05358 8.04996 6.15143 8.44999 6.20419C8.65239 6.23274 8.83724 6.33469 8.96938 6.49064C9.10152 6.6466 9.17173 6.84568 9.16666 7.05002Z" stroke="#B8BBC3" stroke-linecap="round" stroke-linejoin="round"/>
</svg>
