<svg width="10" height="11" viewBox="0 0 10 11" fill="none" xmlns="http://www.w3.org/2000/svg">
<path d="M9.16666 7.55002V8.80002C9.16713 8.91606 9.14336 9.03092 9.09687 9.13725C9.05038 9.24357 8.9822 9.33902 8.89669 9.41746C8.81118 9.49591 8.71023 9.55564 8.6003 9.59281C8.49038 9.62999 8.3739 9.6438 8.25833 9.63335C6.97617 9.49404 5.74458 9.05591 4.66249 8.35419C3.65575 7.71446 2.80222 6.86093 2.16249 5.85419C1.45832 4.76719 1.02009 3.5296 0.883326 2.24169C0.872914 2.12646 0.886607 2.01034 0.923534 1.9007C0.960462 1.79106 1.01981 1.69031 1.09781 1.60486C1.17581 1.51942 1.27074 1.45115 1.37657 1.4044C1.4824 1.35766 1.5968 1.33346 1.71249 1.33335H2.96249C3.1647 1.33136 3.36074 1.40297 3.51406 1.53483C3.66738 1.66668 3.76752 1.84979 3.79583 2.05002C3.84859 2.45005 3.94643 2.84282 4.08749 3.22085C4.14355 3.36999 4.15569 3.53207 4.12245 3.68789C4.08922 3.84371 4.01202 3.98673 3.89999 4.10002L3.37083 4.62919C3.96397 5.67233 4.82768 6.53604 5.87083 7.12919L6.39999 6.60002C6.51328 6.48799 6.65631 6.41079 6.81213 6.37756C6.96794 6.34433 7.13002 6.35646 7.27916 6.41252C7.65719 6.55358 8.04996 6.65143 8.44999 6.70419C8.65239 6.73274 8.83724 6.83469 8.96938 6.99064C9.10152 7.1466 9.17173 7.34568 9.16666 7.55002Z" stroke="#B8BBC3" stroke-linecap="round" stroke-linejoin="round"/>
</svg>
