<svg width="10" height="10" viewBox="0 0 10 10" fill="none" xmlns="http://www.w3.org/2000/svg">
<path d="M9.16666 7.04996V8.29996C9.16713 8.416 9.14336 8.53086 9.09687 8.63719C9.05038 8.74351 8.9822 8.83895 8.89669 8.9174C8.81118 8.99585 8.71023 9.05558 8.6003 9.09275C8.49038 9.12993 8.3739 9.14374 8.25833 9.13329C6.97617 8.99398 5.74458 8.55585 4.66249 7.85413C3.65575 7.2144 2.80222 6.36086 2.16249 5.35413C1.45832 4.26713 1.02009 3.02954 0.883326 1.74163C0.872914 1.6264 0.886607 1.51028 0.923534 1.40064C0.960462 1.291 1.01981 1.19025 1.09781 1.1048C1.17581 1.01936 1.27074 0.951088 1.37657 0.904343C1.4824 0.857598 1.5968 0.833401 1.71249 0.833292H2.96249C3.1647 0.831302 3.36074 0.902908 3.51406 1.03476C3.66738 1.16662 3.76752 1.34973 3.79583 1.54996C3.84859 1.94999 3.94643 2.34276 4.08749 2.72079C4.14355 2.86993 4.15569 3.03201 4.12245 3.18783C4.08922 3.34364 4.01202 3.48667 3.89999 3.59996L3.37083 4.12913C3.96397 5.17227 4.82768 6.03598 5.87083 6.62913L6.39999 6.09996C6.51328 5.98793 6.65631 5.91073 6.81213 5.8775C6.96794 5.84427 7.13002 5.8564 7.27916 5.91246C7.65719 6.05352 8.04996 6.15137 8.44999 6.20413C8.65239 6.23268 8.83724 6.33463 8.96938 6.49058C9.10152 6.64654 9.17173 6.84562 9.16666 7.04996Z" stroke="#B8BBC3" stroke-linecap="round" stroke-linejoin="round"/>
</svg>
